<svg width="74" height="61" viewBox="0 0 74 61" fill="none" xmlns="http://www.w3.org/2000/svg">
<path fill-rule="evenodd" clip-rule="evenodd" d="M36.8939 8.23181C33.9266 8.23181 31.0456 8.5104 28.2943 9.03478C25.3396 3.50035 20.9788 0 16.1146 0C7.21475 0 0 11.7181 0 26.173C0 32.2197 1.26247 37.7875 3.38265 42.2189C7.71099 53.0841 21.0766 61 36.8939 61C51.2239 61 63.5417 54.5027 68.95 45.2013C72.0595 40.4298 73.9999 33.6695 73.9999 26.173C73.9999 11.7181 66.7852 0 57.8853 0C53.0103 0 48.6408 3.51601 45.6859 9.0719C42.8766 8.52355 39.9304 8.23181 36.8939 8.23181Z" fill="#F5FFE3"/>
<path d="M30.9443 20.2629L34.0574 20.9113L32.056 23.5012L30.3365 23.1553L30.9443 20.2629Z" fill="#3F4D4E"/>
<path d="M41.7031 20.2629L38.59 20.9113L40.5914 23.5012L42.311 23.1553L41.7031 20.2629Z" fill="#3F4D4E"/>
<path d="M17.7051 35.1437C19.8254 40.4205 27.9057 48.0656 37.0002 48.0191" stroke="#3F4D4E" stroke-width="4" stroke-linecap="round"/>
<path d="M56.4014 35.0381C54.281 40.3149 46.2008 48.0656 37.1063 48.0191" stroke="#3F4D4E" stroke-width="4" stroke-linecap="round"/>
<path d="M56.4018 35.0381H17.8115" stroke="#3F4D4E" stroke-width="4" stroke-linecap="round"/>
<path d="M53.0088 11.2792C53.0088 4.94705 62.5503 4.94705 62.5503 11.3848" stroke="#3F4D4E" stroke-width="4" stroke-linecap="round"/>
<ellipse cx="15.7968" cy="11.2924" rx="5.83094" ry="5.8045" fill="#3F4D4E"/>
</svg>
