<svg width="105" height="64" viewBox="0 0 105 64" fill="none" xmlns="http://www.w3.org/2000/svg">
<path d="M67.6198 26.9786C67.2758 26.9786 67.0118 26.8866 66.8278 26.7026C66.6438 26.5186 66.5518 26.2506 66.5518 25.8986V22.5386H66.2398C65.9838 22.5386 65.7838 22.4706 65.6398 22.3346C65.5038 22.1986 65.4358 22.0026 65.4358 21.7466C65.4358 21.4906 65.5038 21.2986 65.6398 21.1706C65.7838 21.0346 65.9838 20.9666 66.2398 20.9666H67.1638L66.5518 21.5306V21.1946C66.5518 20.3066 66.7718 19.6426 67.2118 19.2026C67.6598 18.7546 68.3238 18.4866 69.2038 18.3986L69.5518 18.3626C69.8078 18.3306 70.0118 18.3626 70.1638 18.4586C70.3158 18.5466 70.4198 18.6666 70.4758 18.8186C70.5318 18.9626 70.5438 19.1146 70.5118 19.2746C70.4878 19.4346 70.4278 19.5706 70.3318 19.6826C70.2358 19.7946 70.1078 19.8586 69.9478 19.8746L69.7798 19.8866C69.3718 19.9186 69.0878 20.0066 68.9278 20.1506C68.7678 20.2946 68.6878 20.5066 68.6878 20.7866V21.1826L68.4238 20.9666H69.3718C69.6358 20.9666 69.8358 21.0346 69.9718 21.1706C70.1078 21.2986 70.1758 21.4906 70.1758 21.7466C70.1758 22.0026 70.1078 22.1986 69.9718 22.3346C69.8358 22.4706 69.6358 22.5386 69.3718 22.5386H68.6878V25.8986C68.6878 26.6186 68.3318 26.9786 67.6198 26.9786ZM71.968 26.9786C71.616 26.9786 71.344 26.8866 71.152 26.7026C70.968 26.5186 70.876 26.2506 70.876 25.8986V21.9266C70.876 21.5826 70.964 21.3186 71.14 21.1346C71.324 20.9506 71.584 20.8586 71.92 20.8586C72.256 20.8586 72.512 20.9506 72.688 21.1346C72.864 21.3186 72.952 21.5826 72.952 21.9266V22.4186H72.832C72.912 21.9386 73.116 21.5586 73.444 21.2786C73.78 20.9986 74.196 20.8506 74.692 20.8346C74.924 20.8266 75.096 20.8866 75.208 21.0146C75.328 21.1346 75.392 21.3626 75.4 21.6986C75.4 21.9866 75.34 22.2146 75.22 22.3826C75.1 22.5506 74.872 22.6506 74.536 22.6826L74.26 22.7066C73.836 22.7466 73.528 22.8666 73.336 23.0666C73.144 23.2586 73.048 23.5466 73.048 23.9306V25.8986C73.048 26.2506 72.956 26.5186 72.772 26.7026C72.588 26.8866 72.32 26.9786 71.968 26.9786ZM78.9616 27.0026C78.3056 27.0026 77.7336 26.8786 77.2456 26.6306C76.7576 26.3826 76.3776 26.0266 76.1056 25.5626C75.8336 25.0986 75.6976 24.5506 75.6976 23.9186C75.6976 23.4386 75.7736 23.0106 75.9256 22.6346C76.0776 22.2506 76.2976 21.9266 76.5856 21.6626C76.8736 21.3906 77.2176 21.1866 77.6176 21.0506C78.0176 20.9066 78.4656 20.8346 78.9616 20.8346C79.6176 20.8346 80.1896 20.9586 80.6776 21.2066C81.1656 21.4546 81.5416 21.8106 81.8056 22.2746C82.0776 22.7306 82.2136 23.2786 82.2136 23.9186C82.2136 24.3906 82.1376 24.8186 81.9856 25.2026C81.8336 25.5866 81.6136 25.9146 81.3256 26.1866C81.0456 26.4506 80.7016 26.6546 80.2936 26.7986C79.8936 26.9346 79.4496 27.0026 78.9616 27.0026ZM78.9616 25.4306C79.1776 25.4306 79.3696 25.3786 79.5376 25.2746C79.7056 25.1626 79.8336 24.9986 79.9216 24.7826C80.0176 24.5586 80.0656 24.2706 80.0656 23.9186C80.0656 23.3826 79.9616 22.9986 79.7536 22.7666C79.5456 22.5266 79.2816 22.4066 78.9616 22.4066C78.7456 22.4066 78.5536 22.4586 78.3856 22.5626C78.2176 22.6666 78.0856 22.8306 77.9896 23.0546C77.8936 23.2706 77.8456 23.5586 77.8456 23.9186C77.8456 24.4466 77.9496 24.8306 78.1576 25.0706C78.3656 25.3106 78.6336 25.4306 78.9616 25.4306ZM86.1204 29.1626C85.6804 29.1626 85.2684 29.1306 84.8844 29.0666C84.5004 29.0106 84.1684 28.9266 83.8884 28.8146C83.6564 28.7346 83.4924 28.6186 83.3964 28.4666C83.3004 28.3146 83.2564 28.1546 83.2644 27.9866C83.2724 27.8186 83.3164 27.6666 83.3964 27.5306C83.4844 27.3946 83.6004 27.2946 83.7444 27.2306C83.8884 27.1746 84.0484 27.1786 84.2244 27.2426C84.5764 27.3866 84.8964 27.4786 85.1844 27.5186C85.4724 27.5666 85.7164 27.5906 85.9164 27.5906C86.4044 27.5906 86.7684 27.4866 87.0084 27.2786C87.2564 27.0786 87.3804 26.7626 87.3804 26.3306V25.5746H87.4764C87.3564 25.9106 87.1124 26.1866 86.7444 26.4026C86.3764 26.6106 85.9764 26.7146 85.5444 26.7146C85.0164 26.7146 84.5564 26.5946 84.1644 26.3546C83.7724 26.1066 83.4644 25.7626 83.2404 25.3226C83.0244 24.8826 82.9164 24.3666 82.9164 23.7746C82.9164 23.3266 82.9804 22.9226 83.1084 22.5626C83.2364 22.2026 83.4124 21.8946 83.6364 21.6386C83.8684 21.3826 84.1444 21.1866 84.4644 21.0506C84.7924 20.9066 85.1524 20.8346 85.5444 20.8346C85.9924 20.8346 86.3924 20.9386 86.7444 21.1466C87.1044 21.3546 87.3444 21.6266 87.4644 21.9626L87.3444 22.4546V21.9266C87.3444 21.5826 87.4364 21.3186 87.6204 21.1346C87.8124 20.9506 88.0764 20.8586 88.4124 20.8586C88.7484 20.8586 89.0044 20.9506 89.1804 21.1346C89.3644 21.3186 89.4564 21.5826 89.4564 21.9266V26.0786C89.4564 27.1026 89.1684 27.8706 88.5924 28.3826C88.0164 28.9026 87.1924 29.1626 86.1204 29.1626ZM86.2044 25.1426C86.4444 25.1426 86.6484 25.0906 86.8164 24.9866C86.9844 24.8746 87.1164 24.7186 87.2124 24.5186C87.3084 24.3106 87.3564 24.0626 87.3564 23.7746C87.3564 23.3426 87.2524 23.0066 87.0444 22.7666C86.8364 22.5266 86.5564 22.4066 86.2044 22.4066C85.9804 22.4066 85.7804 22.4626 85.6044 22.5746C85.4284 22.6786 85.2924 22.8346 85.1964 23.0426C85.1084 23.2426 85.0644 23.4866 85.0644 23.7746C85.0644 24.2066 85.1684 24.5426 85.3764 24.7826C85.5844 25.0226 85.8604 25.1426 86.2044 25.1426ZM93.6321 29.1626C93.1921 29.1626 92.7801 29.1306 92.3961 29.0666C92.0121 29.0106 91.6801 28.9266 91.4001 28.8146C91.1681 28.7346 91.0041 28.6186 90.9081 28.4666C90.8121 28.3146 90.7681 28.1546 90.7761 27.9866C90.7841 27.8186 90.8281 27.6666 90.9081 27.5306C90.9961 27.3946 91.1121 27.2946 91.2561 27.2306C91.4001 27.1746 91.5601 27.1786 91.7361 27.2426C92.0881 27.3866 92.4081 27.4786 92.6961 27.5186C92.9841 27.5666 93.2281 27.5906 93.4281 27.5906C93.9161 27.5906 94.2801 27.4866 94.5201 27.2786C94.7681 27.0786 94.8921 26.7626 94.8921 26.3306V25.5746H94.9881C94.8681 25.9106 94.6241 26.1866 94.2561 26.4026C93.8881 26.6106 93.4881 26.7146 93.0561 26.7146C92.5281 26.7146 92.0681 26.5946 91.6761 26.3546C91.2841 26.1066 90.9761 25.7626 90.7521 25.3226C90.5361 24.8826 90.4281 24.3666 90.4281 23.7746C90.4281 23.3266 90.4921 22.9226 90.6201 22.5626C90.7481 22.2026 90.9241 21.8946 91.1481 21.6386C91.3801 21.3826 91.6561 21.1866 91.9761 21.0506C92.3041 20.9066 92.6641 20.8346 93.0561 20.8346C93.5041 20.8346 93.9041 20.9386 94.2561 21.1466C94.6161 21.3546 94.8561 21.6266 94.9761 21.9626L94.8561 22.4546V21.9266C94.8561 21.5826 94.9481 21.3186 95.1321 21.1346C95.3241 20.9506 95.5881 20.8586 95.9241 20.8586C96.2601 20.8586 96.5161 20.9506 96.6921 21.1346C96.8761 21.3186 96.9681 21.5826 96.9681 21.9266V26.0786C96.9681 27.1026 96.6801 27.8706 96.1041 28.3826C95.5281 28.9026 94.7041 29.1626 93.6321 29.1626ZM93.7161 25.1426C93.9561 25.1426 94.1601 25.0906 94.3281 24.9866C94.4961 24.8746 94.6281 24.7186 94.7241 24.5186C94.8201 24.3106 94.8681 24.0626 94.8681 23.7746C94.8681 23.3426 94.7641 23.0066 94.5561 22.7666C94.3481 22.5266 94.0681 22.4066 93.7161 22.4066C93.4921 22.4066 93.2921 22.4626 93.1161 22.5746C92.9401 22.6786 92.8041 22.8346 92.7081 23.0426C92.6201 23.2426 92.5761 23.4866 92.5761 23.7746C92.5761 24.2066 92.6801 24.5426 92.8881 24.7826C93.0961 25.0226 93.3721 25.1426 93.7161 25.1426ZM99.9318 29.1386C99.6838 29.1386 99.4838 29.0746 99.3318 28.9466C99.1798 28.8186 99.0838 28.6506 99.0438 28.4426C99.0118 28.2346 99.0478 28.0146 99.1518 27.7826L99.9558 26.0426V26.9066L97.9038 22.2146C97.7998 21.9746 97.7638 21.7506 97.7958 21.5426C97.8358 21.3346 97.9438 21.1706 98.1198 21.0506C98.2958 20.9226 98.5358 20.8586 98.8398 20.8586C99.0958 20.8586 99.2998 20.9186 99.4518 21.0386C99.6118 21.1506 99.7558 21.3746 99.8838 21.7106L101.084 24.8306H100.676L101.948 21.6986C102.076 21.3706 102.22 21.1506 102.38 21.0386C102.548 20.9186 102.772 20.8586 103.052 20.8586C103.292 20.8586 103.484 20.9226 103.628 21.0506C103.772 21.1706 103.86 21.3346 103.892 21.5426C103.924 21.7506 103.888 21.9746 103.784 22.2146L101.06 28.3346C100.916 28.6546 100.756 28.8666 100.58 28.9706C100.412 29.0826 100.196 29.1386 99.9318 29.1386ZM69.0598 43.0026C68.3958 43.0026 67.8158 42.8786 67.3198 42.6306C66.8318 42.3826 66.4518 42.0266 66.1798 41.5626C65.9078 41.0906 65.7718 40.5386 65.7718 39.9066C65.7718 39.4266 65.8478 38.9986 65.9998 38.6226C66.1518 38.2386 66.3718 37.9146 66.6598 37.6506C66.9558 37.3866 67.3038 37.1866 67.7038 37.0506C68.1118 36.9066 68.5638 36.8346 69.0598 36.8346C69.2918 36.8346 69.5358 36.8586 69.7918 36.9066C70.0478 36.9466 70.3118 37.0266 70.5838 37.1466C70.7758 37.2186 70.9078 37.3306 70.9798 37.4826C71.0598 37.6266 71.0918 37.7826 71.0758 37.9506C71.0678 38.1186 71.0198 38.2706 70.9318 38.4066C70.8518 38.5426 70.7358 38.6346 70.5838 38.6826C70.4398 38.7306 70.2758 38.7106 70.0918 38.6226C69.9638 38.5586 69.8278 38.5146 69.6838 38.4906C69.5478 38.4586 69.4158 38.4426 69.2878 38.4426C69.0718 38.4426 68.8798 38.4746 68.7118 38.5386C68.5518 38.6026 68.4158 38.6986 68.3038 38.8266C68.1918 38.9466 68.1038 39.0986 68.0398 39.2826C67.9838 39.4666 67.9558 39.6746 67.9558 39.9066C67.9558 40.3706 68.0718 40.7346 68.3038 40.9986C68.5358 41.2626 68.8638 41.3946 69.2878 41.3946C69.4158 41.3946 69.5478 41.3826 69.6838 41.3586C69.8198 41.3266 69.9558 41.2786 70.0918 41.2146C70.2758 41.1266 70.4398 41.1106 70.5838 41.1666C70.7278 41.2146 70.8438 41.3066 70.9318 41.4426C71.0198 41.5786 71.0678 41.7306 71.0758 41.8986C71.0838 42.0586 71.0478 42.2146 70.9678 42.3666C70.8878 42.5106 70.7518 42.6186 70.5598 42.6906C70.2958 42.8106 70.0358 42.8906 69.7798 42.9306C69.5318 42.9786 69.2918 43.0026 69.0598 43.0026ZM72.9163 42.9786C72.5803 42.9786 72.3203 42.8866 72.1363 42.7026C71.9523 42.5186 71.8603 42.2506 71.8603 41.8986V35.3826C71.8603 35.0306 71.9523 34.7626 72.1363 34.5786C72.3203 34.3946 72.5803 34.3026 72.9163 34.3026C73.2603 34.3026 73.5243 34.3946 73.7083 34.5786C73.9003 34.7626 73.9963 35.0306 73.9963 35.3826V37.9986H73.8043C73.9963 37.6226 74.2683 37.3346 74.6203 37.1346C74.9803 36.9346 75.3883 36.8346 75.8443 36.8346C76.3163 36.8346 76.7043 36.9266 77.0083 37.1106C77.3123 37.2866 77.5403 37.5666 77.6923 37.9506C77.8443 38.3266 77.9203 38.8026 77.9203 39.3786V41.8986C77.9203 42.2506 77.8283 42.5186 77.6443 42.7026C77.4603 42.8866 77.1963 42.9786 76.8523 42.9786C76.5083 42.9786 76.2443 42.8866 76.0603 42.7026C75.8763 42.5186 75.7843 42.2506 75.7843 41.8986V39.4626C75.7843 39.1026 75.7203 38.8466 75.5923 38.6946C75.4723 38.5426 75.2923 38.4666 75.0523 38.4666C74.7323 38.4666 74.4763 38.5706 74.2843 38.7786C74.0923 38.9786 73.9963 39.2506 73.9963 39.5946V41.8986C73.9963 42.6186 73.6363 42.9786 72.9163 42.9786ZM81.1897 43.0026C80.7337 43.0026 80.3297 42.9186 79.9777 42.7506C79.6337 42.5826 79.3617 42.3546 79.1617 42.0666C78.9697 41.7706 78.8737 41.4346 78.8737 41.0586C78.8737 40.6266 78.9857 40.2866 79.2097 40.0386C79.4337 39.7906 79.7937 39.6146 80.2897 39.5106C80.7857 39.3986 81.4457 39.3426 82.2697 39.3426H82.9297V40.3506H82.2697C81.9577 40.3506 81.6977 40.3746 81.4897 40.4226C81.2897 40.4626 81.1417 40.5306 81.0457 40.6266C80.9497 40.7146 80.9017 40.8306 80.9017 40.9746C80.9017 41.1586 80.9657 41.3106 81.0937 41.4306C81.2297 41.5506 81.4217 41.6106 81.6697 41.6106C81.8697 41.6106 82.0457 41.5666 82.1977 41.4786C82.3577 41.3906 82.4857 41.2706 82.5817 41.1186C82.6777 40.9586 82.7257 40.7746 82.7257 40.5666V39.1746C82.7257 38.8866 82.6497 38.6826 82.4977 38.5626C82.3537 38.4426 82.1017 38.3826 81.7417 38.3826C81.5497 38.3826 81.3337 38.4066 81.0937 38.4546C80.8537 38.4946 80.5857 38.5706 80.2897 38.6826C80.0737 38.7626 79.8897 38.7746 79.7377 38.7186C79.5857 38.6626 79.4657 38.5666 79.3777 38.4306C79.2977 38.2946 79.2577 38.1466 79.2577 37.9866C79.2657 37.8266 79.3177 37.6746 79.4137 37.5306C79.5177 37.3866 79.6737 37.2746 79.8817 37.1946C80.2657 37.0506 80.6177 36.9546 80.9377 36.9066C81.2657 36.8586 81.5657 36.8346 81.8377 36.8346C82.4937 36.8346 83.0337 36.9306 83.4577 37.1226C83.8897 37.3066 84.2097 37.5946 84.4177 37.9866C84.6337 38.3706 84.7417 38.8666 84.7417 39.4746V41.8986C84.7417 42.2506 84.6577 42.5186 84.4897 42.7026C84.3217 42.8866 84.0777 42.9786 83.7577 42.9786C83.4297 42.9786 83.1777 42.8866 83.0017 42.7026C82.8337 42.5186 82.7497 42.2506 82.7497 41.8986V41.5866L82.8217 41.7546C82.7817 42.0106 82.6897 42.2306 82.5457 42.4146C82.4017 42.5986 82.2137 42.7426 81.9817 42.8466C81.7497 42.9506 81.4857 43.0026 81.1897 43.0026ZM89.054 43.0026C88.454 43.0026 87.958 42.9106 87.566 42.7266C87.182 42.5426 86.894 42.2666 86.702 41.8986C86.51 41.5226 86.414 41.0546 86.414 40.4946V38.5386H86.006C85.75 38.5386 85.55 38.4706 85.406 38.3346C85.27 38.1986 85.202 38.0026 85.202 37.7466C85.202 37.4906 85.27 37.2986 85.406 37.1706C85.55 37.0346 85.75 36.9666 86.006 36.9666H86.414V36.2226C86.414 35.8706 86.506 35.6026 86.69 35.4186C86.874 35.2346 87.138 35.1426 87.482 35.1426C87.826 35.1426 88.09 35.2346 88.274 35.4186C88.458 35.6026 88.55 35.8706 88.55 36.2226V36.9666H89.534C89.798 36.9666 89.998 37.0346 90.134 37.1706C90.278 37.2986 90.35 37.4906 90.35 37.7466C90.35 38.0026 90.278 38.1986 90.134 38.3346C89.998 38.4706 89.798 38.5386 89.534 38.5386H88.55V40.4226C88.55 40.7186 88.618 40.9386 88.754 41.0826C88.898 41.2186 89.122 41.2866 89.426 41.2866C89.538 41.2866 89.646 41.2746 89.75 41.2506C89.854 41.2266 89.95 41.2146 90.038 41.2146C90.166 41.2066 90.27 41.2466 90.35 41.3346C90.43 41.4146 90.47 41.6026 90.47 41.8986C90.47 42.1386 90.434 42.3426 90.362 42.5106C90.29 42.6706 90.162 42.7866 89.978 42.8586C89.866 42.8986 89.714 42.9306 89.522 42.9546C89.33 42.9866 89.174 43.0026 89.054 43.0026Z" fill="#F5FFE3"/>
<path fill-rule="evenodd" clip-rule="evenodd" d="M26.5453 50.7489C37.5584 56.6374 49.6562 55.9222 55.2698 48.4259C61.7289 39.8006 57.1574 25.464 45.0591 16.4042C32.9609 7.3444 17.9172 6.99221 11.4581 15.6175C5.80507 23.1665 8.60132 35.0903 17.4979 44.0224L29.086 37.9676L26.5453 50.7489Z" fill="#3F4D4E"/>
<path fill-rule="evenodd" clip-rule="evenodd" d="M22.9884 11.126C21.9369 11.126 20.916 11.2252 19.941 11.4119C18.8941 9.44182 17.3488 8.1958 15.6252 8.1958C12.4716 8.1958 9.91504 12.367 9.91504 17.5123C9.91504 19.666 10.3629 21.6489 11.115 23.2268C12.6498 27.093 17.385 29.9094 22.9884 29.9094C28.07 29.9094 32.4374 27.5932 34.3516 24.2783C35.4507 22.5803 36.1363 20.1769 36.1363 17.5123C36.1363 12.367 33.5798 8.1958 30.4262 8.1958C28.6988 8.1958 27.1505 9.44734 26.1034 11.425C25.1081 11.2299 24.0643 11.126 22.9884 11.126Z" fill="#F5FFE3"/>
<circle cx="15.8601" cy="12.2366" r="2.06617" fill="#3F4D4E"/>
<circle cx="30.6609" cy="12.2366" r="2.06617" fill="#3F4D4E"/>
<path d="M21.0547 15.1704L22.388 15.628L21.5308 17.4557L20.7943 17.2116L21.0547 15.1704Z" fill="#3F4D4E"/>
<path d="M25.6631 15.1704L24.3298 15.628L25.187 17.4557L25.9234 17.2116L25.6631 15.1704Z" fill="#3F4D4E"/>
<path fill-rule="evenodd" clip-rule="evenodd" d="M29.2036 20.3894C29.3574 20.0048 29.7939 19.8177 30.1785 19.9716C30.563 20.1254 30.7501 20.5619 30.5963 20.9465C30.1586 22.0405 29.1551 23.3021 27.8622 24.2858C26.562 25.2749 24.8834 26.048 23.0589 26.0386C23.0546 26.0386 23.0504 26.0385 23.0461 26.0384C23.041 26.0386 23.0358 26.0387 23.0306 26.0387C21.209 26.048 19.5315 25.2866 18.2303 24.3068C16.9369 23.3328 15.9317 22.0801 15.4933 20.9841C15.3395 20.5995 15.5265 20.163 15.9111 20.0092C16.2957 19.8554 16.7322 20.0424 16.886 20.427C17.199 21.2094 18.001 22.2564 19.1326 23.1086C20.2566 23.9549 21.622 24.5459 23.0229 24.5387C23.0298 24.5387 23.0366 24.5387 23.0435 24.5389C23.0512 24.5387 23.0589 24.5386 23.0666 24.5386C24.4647 24.5458 25.829 23.9478 26.954 23.092C28.0861 22.2307 28.8898 21.1737 29.2036 20.3894Z" fill="#3F4D4E"/>
<path d="M16.1602 20.5244H29.8035" stroke="#3F4D4E" stroke-width="1.5" stroke-linecap="round"/>
<path fill-rule="evenodd" clip-rule="evenodd" d="M57.3515 46.2783C58.4506 44.5803 59.1362 42.1769 59.1362 39.5123C59.1362 34.367 56.5797 30.1958 53.4261 30.1958C51.6986 30.1958 50.1504 31.4473 49.1033 33.425C48.108 33.2299 47.0642 33.126 45.9883 33.126C44.9368 33.126 43.9159 33.2252 42.941 33.4119C41.894 31.4418 40.3488 30.1959 38.6252 30.1959C35.4716 30.1959 32.915 34.367 32.915 39.5124C32.915 41.6655 33.3627 43.648 34.1144 45.2257C35.6489 49.0924 40.3844 51.9094 45.9883 51.9094C51.0699 51.9094 55.4373 49.5932 57.3515 46.2783Z" fill="#F5FFE3"/>
<circle cx="38.6003" cy="33.7434" r="2.06617" fill="#3F4D4E"/>
<circle cx="53.4021" cy="33.7434" r="2.06617" fill="#3F4D4E"/>
<path d="M43.7812 37.6772L45.0474 38.0927L44.2334 39.7522L43.534 39.5306L43.7812 37.6772Z" fill="#3F4D4E"/>
<path d="M48.1553 37.6772L46.8892 38.0927L47.7031 39.7522L48.4025 39.5306L48.1553 37.6772Z" fill="#3F4D4E"/>
<path fill-rule="evenodd" clip-rule="evenodd" d="M52.2036 42.3894C52.3574 42.0048 52.7939 41.8177 53.1785 41.9716C53.563 42.1254 53.7501 42.5619 53.5963 42.9465C53.1586 44.0405 52.1551 45.3021 50.8622 46.2858C49.562 47.2749 47.8834 48.048 46.0589 48.0386C46.0546 48.0386 46.0504 48.0385 46.0461 48.0384C46.041 48.0386 46.0358 48.0387 46.0306 48.0387C44.209 48.048 42.5315 47.2866 41.2303 46.3068C39.9369 45.3328 38.9317 44.0801 38.4933 42.9841C38.3395 42.5995 38.5265 42.163 38.9111 42.0092C39.2957 41.8554 39.7322 42.0424 39.886 42.427C40.199 43.2094 41.001 44.2564 42.1326 45.1086C43.2566 45.9549 44.622 46.5459 46.0229 46.5387C46.0298 46.5387 46.0366 46.5387 46.0435 46.5389C46.0512 46.5387 46.0589 46.5386 46.0666 46.5386C47.4647 46.5458 48.829 45.9478 49.954 45.092C51.0861 44.2307 51.8898 43.1737 52.2036 42.3894Z" fill="#3F4D4E"/>
<path d="M39.1592 42.5242H52.8026" stroke="#3F4D4E" stroke-width="1.5" stroke-linecap="round"/>
</svg>
