<svg width="124" height="64" viewBox="0 0 124 64" fill="none" xmlns="http://www.w3.org/2000/svg">
<path d="M69.294 21.162C68.778 21.162 68.382 21.024 68.106 20.748C67.83 20.472 67.692 20.07 67.692 19.542V14.502H67.224C66.84 14.502 66.54 14.4 66.324 14.196C66.12 13.992 66.018 13.698 66.018 13.314C66.018 12.93 66.12 12.642 66.324 12.45C66.54 12.246 66.84 12.144 67.224 12.144H68.61L67.692 12.99V12.486C67.692 11.154 68.022 10.158 68.682 9.498C69.354 8.826 70.35 8.424 71.67 8.292L72.192 8.238C72.576 8.19 72.882 8.238 73.11 8.382C73.338 8.514 73.494 8.694 73.578 8.922C73.662 9.138 73.68 9.366 73.632 9.606C73.596 9.846 73.506 10.05 73.362 10.218C73.218 10.386 73.026 10.482 72.786 10.506L72.534 10.524C71.922 10.572 71.496 10.704 71.256 10.92C71.016 11.136 70.896 11.454 70.896 11.874V12.468L70.5 12.144H71.922C72.318 12.144 72.618 12.246 72.822 12.45C73.026 12.642 73.128 12.93 73.128 13.314C73.128 13.698 73.026 13.992 72.822 14.196C72.618 14.4 72.318 14.502 71.922 14.502H70.896V19.542C70.896 20.622 70.362 21.162 69.294 21.162ZM75.8162 21.162C75.2882 21.162 74.8802 21.024 74.5922 20.748C74.3162 20.472 74.1782 20.07 74.1782 19.542V13.584C74.1782 13.068 74.3102 12.672 74.5742 12.396C74.8502 12.12 75.2402 11.982 75.7442 11.982C76.2482 11.982 76.6322 12.12 76.8962 12.396C77.1602 12.672 77.2922 13.068 77.2922 13.584V14.322H77.1122C77.2322 13.602 77.5382 13.032 78.0302 12.612C78.5342 12.192 79.1582 11.97 79.9022 11.946C80.2502 11.934 80.5082 12.024 80.6762 12.216C80.8562 12.396 80.9522 12.738 80.9642 13.242C80.9642 13.674 80.8742 14.016 80.6942 14.268C80.5142 14.52 80.1722 14.67 79.6682 14.718L79.2542 14.754C78.6182 14.814 78.1562 14.994 77.8682 15.294C77.5802 15.582 77.4362 16.014 77.4362 16.59V19.542C77.4362 20.07 77.2982 20.472 77.0222 20.748C76.7462 21.024 76.3442 21.162 75.8162 21.162ZM86.3067 21.198C85.3227 21.198 84.4647 21.012 83.7327 20.64C83.0007 20.268 82.4307 19.734 82.0227 19.038C81.6147 18.342 81.4107 17.52 81.4107 16.572C81.4107 15.852 81.5247 15.21 81.7527 14.646C81.9807 14.07 82.3107 13.584 82.7427 13.188C83.1747 12.78 83.6907 12.474 84.2907 12.27C84.8907 12.054 85.5627 11.946 86.3067 11.946C87.2907 11.946 88.1487 12.132 88.8807 12.504C89.6127 12.876 90.1767 13.41 90.5727 14.106C90.9807 14.79 91.1847 15.612 91.1847 16.572C91.1847 17.28 91.0707 17.922 90.8427 18.498C90.6147 19.074 90.2847 19.566 89.8527 19.974C89.4327 20.37 88.9167 20.676 88.3047 20.892C87.7047 21.096 87.0387 21.198 86.3067 21.198ZM86.3067 18.84C86.6307 18.84 86.9187 18.762 87.1707 18.606C87.4227 18.438 87.6147 18.192 87.7467 17.868C87.8907 17.532 87.9627 17.1 87.9627 16.572C87.9627 15.768 87.8067 15.192 87.4947 14.844C87.1827 14.484 86.7867 14.304 86.3067 14.304C85.9827 14.304 85.6947 14.382 85.4427 14.538C85.1907 14.694 84.9927 14.94 84.8487 15.276C84.7047 15.6 84.6327 16.032 84.6327 16.572C84.6327 17.364 84.7887 17.94 85.1007 18.3C85.4127 18.66 85.8147 18.84 86.3067 18.84ZM97.0448 24.438C96.3848 24.438 95.7668 24.39 95.1908 24.294C94.6148 24.21 94.1168 24.084 93.6968 23.916C93.3488 23.796 93.1028 23.622 92.9588 23.394C92.8148 23.166 92.7488 22.926 92.7608 22.674C92.7728 22.422 92.8388 22.194 92.9588 21.99C93.0908 21.786 93.2648 21.636 93.4808 21.54C93.6968 21.456 93.9368 21.462 94.2008 21.558C94.7288 21.774 95.2088 21.912 95.6408 21.972C96.0728 22.044 96.4388 22.08 96.7388 22.08C97.4708 22.08 98.0168 21.924 98.3768 21.612C98.7488 21.312 98.9348 20.838 98.9348 20.19V19.056H99.0788C98.8988 19.56 98.5328 19.974 97.9808 20.298C97.4288 20.61 96.8288 20.766 96.1808 20.766C95.3888 20.766 94.6988 20.586 94.1108 20.226C93.5228 19.854 93.0608 19.338 92.7248 18.678C92.4008 18.018 92.2388 17.244 92.2388 16.356C92.2388 15.684 92.3348 15.078 92.5268 14.538C92.7188 13.998 92.9828 13.536 93.3188 13.152C93.6668 12.768 94.0808 12.474 94.5608 12.27C95.0528 12.054 95.5928 11.946 96.1808 11.946C96.8528 11.946 97.4528 12.102 97.9808 12.414C98.5208 12.726 98.8808 13.134 99.0608 13.638L98.8808 14.376V13.584C98.8808 13.068 99.0188 12.672 99.2948 12.396C99.5828 12.12 99.9788 11.982 100.483 11.982C100.987 11.982 101.371 12.12 101.635 12.396C101.911 12.672 102.049 13.068 102.049 13.584V19.812C102.049 21.348 101.617 22.5 100.753 23.268C99.8888 24.048 98.6528 24.438 97.0448 24.438ZM97.1708 18.408C97.5308 18.408 97.8368 18.33 98.0888 18.174C98.3408 18.006 98.5388 17.772 98.6828 17.472C98.8268 17.16 98.8988 16.788 98.8988 16.356C98.8988 15.708 98.7428 15.204 98.4308 14.844C98.1188 14.484 97.6988 14.304 97.1708 14.304C96.8348 14.304 96.5348 14.388 96.2708 14.556C96.0068 14.712 95.8028 14.946 95.6588 15.258C95.5268 15.558 95.4608 15.924 95.4608 16.356C95.4608 17.004 95.6168 17.508 95.9288 17.868C96.2408 18.228 96.6548 18.408 97.1708 18.408ZM108.312 24.438C107.652 24.438 107.034 24.39 106.458 24.294C105.882 24.21 105.384 24.084 104.964 23.916C104.616 23.796 104.37 23.622 104.226 23.394C104.082 23.166 104.016 22.926 104.028 22.674C104.04 22.422 104.106 22.194 104.226 21.99C104.358 21.786 104.532 21.636 104.748 21.54C104.964 21.456 105.204 21.462 105.468 21.558C105.996 21.774 106.476 21.912 106.908 21.972C107.34 22.044 107.706 22.08 108.006 22.08C108.738 22.08 109.284 21.924 109.644 21.612C110.016 21.312 110.202 20.838 110.202 20.19V19.056H110.346C110.166 19.56 109.8 19.974 109.248 20.298C108.696 20.61 108.096 20.766 107.448 20.766C106.656 20.766 105.966 20.586 105.378 20.226C104.79 19.854 104.328 19.338 103.992 18.678C103.668 18.018 103.506 17.244 103.506 16.356C103.506 15.684 103.602 15.078 103.794 14.538C103.986 13.998 104.25 13.536 104.586 13.152C104.934 12.768 105.348 12.474 105.828 12.27C106.32 12.054 106.86 11.946 107.448 11.946C108.12 11.946 108.72 12.102 109.248 12.414C109.788 12.726 110.148 13.134 110.328 13.638L110.148 14.376V13.584C110.148 13.068 110.286 12.672 110.562 12.396C110.85 12.12 111.246 11.982 111.75 11.982C112.254 11.982 112.638 12.12 112.902 12.396C113.178 12.672 113.316 13.068 113.316 13.584V19.812C113.316 21.348 112.884 22.5 112.02 23.268C111.156 24.048 109.92 24.438 108.312 24.438ZM108.438 18.408C108.798 18.408 109.104 18.33 109.356 18.174C109.608 18.006 109.806 17.772 109.95 17.472C110.094 17.16 110.166 16.788 110.166 16.356C110.166 15.708 110.01 15.204 109.698 14.844C109.386 14.484 108.966 14.304 108.438 14.304C108.102 14.304 107.802 14.388 107.538 14.556C107.274 14.712 107.07 14.946 106.926 15.258C106.794 15.558 106.728 15.924 106.728 16.356C106.728 17.004 106.884 17.508 107.196 17.868C107.508 18.228 107.922 18.408 108.438 18.408ZM117.762 24.402C117.39 24.402 117.09 24.306 116.862 24.114C116.634 23.922 116.49 23.67 116.43 23.358C116.382 23.046 116.436 22.716 116.592 22.368L117.798 19.758V21.054L114.72 14.016C114.564 13.656 114.51 13.32 114.558 13.008C114.618 12.696 114.78 12.45 115.044 12.27C115.308 12.078 115.668 11.982 116.124 11.982C116.508 11.982 116.814 12.072 117.042 12.252C117.282 12.42 117.498 12.756 117.69 13.26L119.49 17.94H118.878L120.786 13.242C120.978 12.75 121.194 12.42 121.434 12.252C121.686 12.072 122.022 11.982 122.442 11.982C122.802 11.982 123.09 12.078 123.306 12.27C123.522 12.45 123.654 12.696 123.702 13.008C123.75 13.32 123.696 13.656 123.54 14.016L119.454 23.196C119.238 23.676 118.998 23.994 118.734 24.15C118.482 24.318 118.158 24.402 117.762 24.402ZM71.454 46.198C70.458 46.198 69.588 46.012 68.844 45.64C68.112 45.268 67.542 44.734 67.134 44.038C66.726 43.33 66.522 42.502 66.522 41.554C66.522 40.834 66.636 40.192 66.864 39.628C67.092 39.052 67.422 38.566 67.854 38.17C68.298 37.774 68.82 37.474 69.42 37.27C70.032 37.054 70.71 36.946 71.454 36.946C71.802 36.946 72.168 36.982 72.552 37.054C72.936 37.114 73.332 37.234 73.74 37.414C74.028 37.522 74.226 37.69 74.334 37.918C74.454 38.134 74.502 38.368 74.478 38.62C74.466 38.872 74.394 39.1 74.262 39.304C74.142 39.508 73.968 39.646 73.74 39.718C73.524 39.79 73.278 39.76 73.002 39.628C72.81 39.532 72.606 39.466 72.39 39.43C72.186 39.382 71.988 39.358 71.796 39.358C71.472 39.358 71.184 39.406 70.932 39.502C70.692 39.598 70.488 39.742 70.32 39.934C70.152 40.114 70.02 40.342 69.924 40.618C69.84 40.894 69.798 41.206 69.798 41.554C69.798 42.25 69.972 42.796 70.32 43.192C70.668 43.588 71.16 43.786 71.796 43.786C71.988 43.786 72.186 43.768 72.39 43.732C72.594 43.684 72.798 43.612 73.002 43.516C73.278 43.384 73.524 43.36 73.74 43.444C73.956 43.516 74.13 43.654 74.262 43.858C74.394 44.062 74.466 44.29 74.478 44.542C74.49 44.782 74.436 45.016 74.316 45.244C74.196 45.46 73.992 45.622 73.704 45.73C73.308 45.91 72.918 46.03 72.534 46.09C72.162 46.162 71.802 46.198 71.454 46.198ZM77.2388 46.162C76.7348 46.162 76.3448 46.024 76.0688 45.748C75.7928 45.472 75.6548 45.07 75.6548 44.542V34.768C75.6548 34.24 75.7928 33.838 76.0688 33.562C76.3448 33.286 76.7348 33.148 77.2388 33.148C77.7548 33.148 78.1508 33.286 78.4268 33.562C78.7148 33.838 78.8588 34.24 78.8588 34.768V38.692H78.5708C78.8588 38.128 79.2668 37.696 79.7948 37.396C80.3348 37.096 80.9468 36.946 81.6308 36.946C82.3388 36.946 82.9208 37.084 83.3768 37.36C83.8328 37.624 84.1748 38.044 84.4028 38.62C84.6308 39.184 84.7448 39.898 84.7448 40.762V44.542C84.7448 45.07 84.6068 45.472 84.3308 45.748C84.0548 46.024 83.6588 46.162 83.1428 46.162C82.6268 46.162 82.2308 46.024 81.9548 45.748C81.6788 45.472 81.5408 45.07 81.5408 44.542V40.888C81.5408 40.348 81.4448 39.964 81.2528 39.736C81.0728 39.508 80.8028 39.394 80.4428 39.394C79.9628 39.394 79.5788 39.55 79.2908 39.862C79.0028 40.162 78.8588 40.57 78.8588 41.086V44.542C78.8588 45.622 78.3188 46.162 77.2388 46.162ZM89.6488 46.198C88.9648 46.198 88.3588 46.072 87.8308 45.82C87.3148 45.568 86.9068 45.226 86.6068 44.794C86.3188 44.35 86.1748 43.846 86.1748 43.282C86.1748 42.634 86.3428 42.124 86.6788 41.752C87.0148 41.38 87.5548 41.116 88.2988 40.96C89.0428 40.792 90.0328 40.708 91.2688 40.708H92.2588V42.22H91.2688C90.8008 42.22 90.4108 42.256 90.0988 42.328C89.7988 42.388 89.5768 42.49 89.4328 42.634C89.2888 42.766 89.2168 42.94 89.2168 43.156C89.2168 43.432 89.3128 43.66 89.5048 43.84C89.7088 44.02 89.9968 44.11 90.3688 44.11C90.6688 44.11 90.9328 44.044 91.1608 43.912C91.4008 43.78 91.5928 43.6 91.7368 43.372C91.8808 43.132 91.9528 42.856 91.9528 42.544V40.456C91.9528 40.024 91.8388 39.718 91.6108 39.538C91.3948 39.358 91.0168 39.268 90.4768 39.268C90.1888 39.268 89.8648 39.304 89.5048 39.376C89.1448 39.436 88.7428 39.55 88.2988 39.718C87.9748 39.838 87.6988 39.856 87.4708 39.772C87.2428 39.688 87.0628 39.544 86.9308 39.34C86.8108 39.136 86.7508 38.914 86.7508 38.674C86.7628 38.434 86.8408 38.206 86.9848 37.99C87.1408 37.774 87.3748 37.606 87.6868 37.486C88.2628 37.27 88.7908 37.126 89.2708 37.054C89.7628 36.982 90.2128 36.946 90.6208 36.946C91.6048 36.946 92.4148 37.09 93.0508 37.378C93.6988 37.654 94.1788 38.086 94.4908 38.674C94.8148 39.25 94.9768 39.994 94.9768 40.906V44.542C94.9768 45.07 94.8508 45.472 94.5988 45.748C94.3468 46.024 93.9808 46.162 93.5008 46.162C93.0088 46.162 92.6308 46.024 92.3668 45.748C92.1148 45.472 91.9888 45.07 91.9888 44.542V44.074L92.0968 44.326C92.0368 44.71 91.8988 45.04 91.6828 45.316C91.4668 45.592 91.1848 45.808 90.8368 45.964C90.4888 46.12 90.0928 46.198 89.6488 46.198ZM101.445 46.198C100.545 46.198 99.8012 46.06 99.2132 45.784C98.6372 45.508 98.2052 45.094 97.9172 44.542C97.6292 43.978 97.4852 43.276 97.4852 42.436V39.502H96.8732C96.4892 39.502 96.1892 39.4 95.9732 39.196C95.7692 38.992 95.6672 38.698 95.6672 38.314C95.6672 37.93 95.7692 37.642 95.9732 37.45C96.1892 37.246 96.4892 37.144 96.8732 37.144H97.4852V36.028C97.4852 35.5 97.6232 35.098 97.8992 34.822C98.1752 34.546 98.5712 34.408 99.0872 34.408C99.6032 34.408 99.9992 34.546 100.275 34.822C100.551 35.098 100.689 35.5 100.689 36.028V37.144H102.165C102.561 37.144 102.861 37.246 103.065 37.45C103.281 37.642 103.389 37.93 103.389 38.314C103.389 38.698 103.281 38.992 103.065 39.196C102.861 39.4 102.561 39.502 102.165 39.502H100.689V42.328C100.689 42.772 100.791 43.102 100.995 43.318C101.211 43.522 101.547 43.624 102.003 43.624C102.171 43.624 102.333 43.606 102.489 43.57C102.645 43.534 102.789 43.516 102.921 43.516C103.113 43.504 103.269 43.564 103.389 43.696C103.509 43.816 103.569 44.098 103.569 44.542C103.569 44.902 103.515 45.208 103.407 45.46C103.299 45.7 103.107 45.874 102.831 45.982C102.663 46.042 102.435 46.09 102.147 46.126C101.859 46.174 101.625 46.198 101.445 46.198Z" fill="#F5FFE3"/>
<path fill-rule="evenodd" clip-rule="evenodd" d="M26.5453 50.7489C37.5584 56.6374 49.6562 55.9222 55.2698 48.4259C61.7289 39.8006 57.1574 25.464 45.0591 16.4042C32.9609 7.3444 17.9172 6.99221 11.4581 15.6175C5.80507 23.1665 8.60132 35.0903 17.4979 44.0224L29.086 37.9676L26.5453 50.7489Z" fill="#3F4D4E"/>
<path fill-rule="evenodd" clip-rule="evenodd" d="M22.9884 11.126C21.9369 11.126 20.916 11.2252 19.941 11.4119C18.8941 9.44182 17.3488 8.1958 15.6252 8.1958C12.4716 8.1958 9.91504 12.367 9.91504 17.5123C9.91504 19.666 10.3629 21.6489 11.115 23.2268C12.6498 27.093 17.385 29.9094 22.9884 29.9094C28.07 29.9094 32.4374 27.5932 34.3516 24.2783C35.4507 22.5803 36.1363 20.1769 36.1363 17.5123C36.1363 12.367 33.5798 8.1958 30.4262 8.1958C28.6988 8.1958 27.1505 9.44734 26.1034 11.425C25.1081 11.2299 24.0643 11.126 22.9884 11.126Z" fill="#F5FFE3"/>
<circle cx="15.8601" cy="12.2366" r="2.06617" fill="#3F4D4E"/>
<circle cx="30.6609" cy="12.2366" r="2.06617" fill="#3F4D4E"/>
<path d="M21.0547 15.1704L22.388 15.628L21.5308 17.4557L20.7943 17.2116L21.0547 15.1704Z" fill="#3F4D4E"/>
<path d="M25.6631 15.1704L24.3298 15.628L25.187 17.4557L25.9234 17.2116L25.6631 15.1704Z" fill="#3F4D4E"/>
<path fill-rule="evenodd" clip-rule="evenodd" d="M29.2036 20.3894C29.3574 20.0048 29.7939 19.8177 30.1785 19.9716C30.563 20.1254 30.7501 20.5619 30.5963 20.9465C30.1586 22.0405 29.1551 23.3021 27.8622 24.2858C26.562 25.2749 24.8834 26.048 23.0589 26.0386C23.0546 26.0386 23.0504 26.0385 23.0461 26.0384C23.041 26.0386 23.0358 26.0387 23.0306 26.0387C21.209 26.048 19.5315 25.2866 18.2303 24.3068C16.9369 23.3328 15.9317 22.0801 15.4933 20.9841C15.3395 20.5995 15.5265 20.163 15.9111 20.0092C16.2957 19.8554 16.7322 20.0424 16.886 20.427C17.199 21.2094 18.001 22.2564 19.1326 23.1086C20.2566 23.9549 21.622 24.5459 23.0229 24.5387C23.0298 24.5387 23.0366 24.5387 23.0435 24.5389C23.0512 24.5387 23.0589 24.5386 23.0666 24.5386C24.4647 24.5458 25.829 23.9478 26.954 23.092C28.0861 22.2307 28.8898 21.1737 29.2036 20.3894Z" fill="#3F4D4E"/>
<path d="M16.1602 20.5244H29.8035" stroke="#3F4D4E" stroke-width="1.5" stroke-linecap="round"/>
<path fill-rule="evenodd" clip-rule="evenodd" d="M57.3515 46.2783C58.4506 44.5803 59.1362 42.1769 59.1362 39.5123C59.1362 34.367 56.5797 30.1958 53.4261 30.1958C51.6986 30.1958 50.1504 31.4473 49.1033 33.425C48.108 33.2299 47.0642 33.126 45.9883 33.126C44.9368 33.126 43.9159 33.2252 42.941 33.4119C41.894 31.4418 40.3488 30.1959 38.6252 30.1959C35.4716 30.1959 32.915 34.367 32.915 39.5124C32.915 41.6655 33.3627 43.648 34.1144 45.2257C35.6489 49.0924 40.3844 51.9094 45.9883 51.9094C51.0699 51.9094 55.4373 49.5932 57.3515 46.2783Z" fill="#F5FFE3"/>
<circle cx="38.6003" cy="33.7434" r="2.06617" fill="#3F4D4E"/>
<circle cx="53.4021" cy="33.7434" r="2.06617" fill="#3F4D4E"/>
<path d="M43.7812 37.6772L45.0474 38.0927L44.2334 39.7522L43.534 39.5306L43.7812 37.6772Z" fill="#3F4D4E"/>
<path d="M48.1553 37.6772L46.8892 38.0927L47.7031 39.7522L48.4025 39.5306L48.1553 37.6772Z" fill="#3F4D4E"/>
<path fill-rule="evenodd" clip-rule="evenodd" d="M52.2036 42.3894C52.3574 42.0048 52.7939 41.8177 53.1785 41.9716C53.563 42.1254 53.7501 42.5619 53.5963 42.9465C53.1586 44.0405 52.1551 45.3021 50.8622 46.2858C49.562 47.2749 47.8834 48.048 46.0589 48.0386C46.0546 48.0386 46.0504 48.0385 46.0461 48.0384C46.041 48.0386 46.0358 48.0387 46.0306 48.0387C44.209 48.048 42.5315 47.2866 41.2303 46.3068C39.9369 45.3328 38.9317 44.0801 38.4933 42.9841C38.3395 42.5995 38.5265 42.163 38.9111 42.0092C39.2957 41.8554 39.7322 42.0424 39.886 42.427C40.199 43.2094 41.001 44.2564 42.1326 45.1086C43.2566 45.9549 44.622 46.5459 46.0229 46.5387C46.0298 46.5387 46.0366 46.5387 46.0435 46.5389C46.0512 46.5387 46.0589 46.5386 46.0666 46.5386C47.4647 46.5458 48.829 45.9478 49.954 45.092C51.0861 44.2307 51.8898 43.1737 52.2036 42.3894Z" fill="#3F4D4E"/>
<path d="M39.1592 42.5242H52.8026" stroke="#3F4D4E" stroke-width="1.5" stroke-linecap="round"/>
</svg>
