<svg width="73" height="62" viewBox="0 0 73 62" fill="none" xmlns="http://www.w3.org/2000/svg">
<path fill-rule="evenodd" clip-rule="evenodd" d="M36.3957 8.37496C33.4684 8.37496 30.6262 8.65631 27.9121 9.18588C24.9973 3.59689 20.6954 0.0620117 15.8968 0.0620117C7.11725 0.0620117 0 11.8953 0 26.4925C0 32.6005 1.24619 38.2246 3.33889 42.7003C7.61039 53.6704 20.7941 61.6622 36.3957 61.6622C50.5371 61.6622 62.6921 55.0962 68.0243 45.6979C71.0882 40.88 72.9997 34.0574 72.9997 26.4925C72.9997 11.8953 65.8825 0.0620117 57.1029 0.0620117C52.2937 0.0620117 47.9833 3.61262 45.0682 9.22319C42.2971 8.66953 39.391 8.37496 36.3957 8.37496Z" fill="#FFD1C2"/>
<path d="M30.5264 20.5244L33.5974 21.1791L31.623 23.7946L29.9267 23.4453L30.5264 20.5244Z" fill="#3F4D4E"/>
<path d="M41.1396 20.5244L38.0686 21.1791L40.043 23.7946L41.7393 23.4453L41.1396 20.5244Z" fill="#3F4D4E"/>
<path d="M27.8203 43.7104C28.7513 41.3387 32.2992 37.9024 36.2924 37.9233" stroke="#3F4D4E" stroke-width="4" stroke-linecap="round"/>
<path d="M44.8105 43.7573C43.8795 41.3855 40.3317 37.9018 36.3384 37.9227" stroke="#3F4D4E" stroke-width="4" stroke-linecap="round"/>
<path d="M11.0859 6.77647C11.0859 13.1709 20.4985 13.1709 20.4985 6.66989" stroke="#3F4D4E" stroke-width="4" stroke-linecap="round"/>
<path d="M52.293 6.6832C52.293 13.0777 61.7056 13.0777 61.7056 6.57663" stroke="#3F4D4E" stroke-width="4" stroke-linecap="round"/>
</svg>
